<svg xmlns="http://www.w3.org/2000/svg" viewBox="0 0 256 256">
  <title>Pokémon Showdown logo, classic blue</title>
  <defs>
    <linearGradient id="ball" gradientUnits="userSpaceOnUse" x1="0" y1="45" x2="0" y2="195">
      <stop stop-color="#5988c0" />
      <stop offset="1" stop-color="#003265" />
    </linearGradient>
    <linearGradient id="mark" gradientUnits="userSpaceOnUse" x1="0" y1="21" x2="0" y2="226">
      <stop stop-color="#66cdfd" />
      <stop offset="1" stop-color="#0080c5" />
    </linearGradient>

    <filter id="innerShadows" color-interpolation-filters="sRGB">
      <feGaussianBlur in="SourceAlpha" stdDeviation="4" result="softEdge" />

      <!-- dark inner shadow -->
      <feOffset in="softEdge" dx="-3" dy="-3" result="darkOffset" />
      <feComposite in="SourceAlpha" in2="darkOffset" operator="out" result="darkMask" />
      <feFlood flood-color="black" flood-opacity="0.65" result="darkColor" />
      <feComposite in="darkColor" in2="darkMask" operator="in" result="darkShadow" />

      <!-- light inner "shadow" highlight -->
      <feOffset in="softEdge" dx="3" dy="3" result="lightOffset" />
      <feComposite in="SourceAlpha" in2="lightOffset" operator="out" result="lightMask" />
      <feFlood flood-color="white" flood-opacity="0.5" result="lightColor" />
      <feComposite in="lightColor" in2="lightMask" operator="in" result="lightShadow" />
      <feMerge>
        <feMergeNode in="SourceGraphic" />
        <feMergeNode in="darkShadow" />
        <feMergeNode in="lightShadow" />
      </feMerge>
    </filter>

    <filter id="dropShadow" x="-20%" y="-20%" width="140%" height="140%" color-interpolation-filters="sRGB">
      <!-- outer shadow -->
      <feGaussianBlur in="SourceAlpha" stdDeviation="3.5" result="shadowBlur" />
      <feOffset in="shadowBlur" dx="6" dy="6" result="shadowMask" />
      <feFlood flood-color="black" flood-opacity="0.6" result="shadowColor" />
      <feComposite in="shadowColor" in2="shadowMask" operator="in" result="shadow" />
      <feMerge>
        <feMergeNode in="shadow" />
        <feMergeNode in="SourceGraphic" />
      </feMerge>
    </filter>

    <!-- exclamation mark -->
    <g id="markShape">
      <path d="M 176 21 H 221 Q 236 21 231 36
               L 188 152 Q 185 164 173 164
               H 146 Q 134 164 138 150
               L 164 32 Q 166 21 176 21 Z" />
      <path d="M 137 174 H 182 Q 198 174 194 188
               L 186 218 Q 184 226 174 226
               H 127 Q 114 226 117 213
               L 125 184 Q 127 174 137 174 Z" />
    </g>

    <!-- ball -->
    <g id="ballShape">
      <path d="M 30 114 C 33 75 64 45 104 45
               C 144 45 175 75 178 114
               H 126 A 23 23 0 0 0 82 114 Z" />
      <path d="M 30 126 H 82 A 23 23 0 0 0 126 126
               H 178 C 175 165 144 195 104 195
               C 64 195 33 165 30 126 Z" />
    </g>
  </defs>

  <!-- gradient and stroke -->
  <g filter="url(#dropShadow)">
    <use href="#markShape" fill="url(#mark)" filter="url(#innerShadows)" />
    <use href="#markShape" fill="none" stroke="#cee4f5" stroke-width="5" stroke-linejoin="round" />
  </g>
  <g filter="url(#dropShadow)">
    <use href="#ballShape" fill="url(#ball)" filter="url(#innerShadows)" />
    <use href="#ballShape" fill="none" stroke="#cee4f5" stroke-width="5" stroke-linejoin="round" />
  </g>
</svg>
